solid OpenSCAD_Model
  facet normal -1 0 0
    outer loop
      vertex 0 0 0
      vertex 0 40 22
      vertex 0 40 0
    endloop
  endfacet
  facet normal -1 -0 0
    outer loop
      vertex 0 40 22
      vertex 0 0 0
      vertex 0 0 22
    endloop
  endfacet
  facet normal 0 0 1
    outer loop
      vertex 43 40 7
      vertex 41.5 20 7
      vertex 43 0 7
    endloop
  endfacet
  facet normal 0 0 1
    outer loop
      vertex 43 40 7
      vertex 41.4803 20.6279 7
      vertex 41.5 20 7
    endloop
  endfacet
  facet normal 0 0 1
    outer loop
      vertex 43 40 7
      vertex 41.4211 21.2533 7
      vertex 41.4803 20.6279 7
    endloop
  endfacet
  facet normal 0 0 1
    outer loop
      vertex 43 40 7
      vertex 41.3229 21.8738 7
      vertex 41.4211 21.2533 7
    endloop
  endfacet
  facet normal 0 0 1
    outer loop
      vertex 43 40 7
      vertex 41.1858 22.4869 7
      vertex 41.3229 21.8738 7
    endloop
  endfacet
  facet normal 0 0 1
    outer loop
      vertex 43 40 7
      vertex 41.0106 23.0902 7
      vertex 41.1858 22.4869 7
    endloop
  endfacet
  facet normal 0 0 1
    outer loop
      vertex 43 40 7
      vertex 40.7978 23.6812 7
      vertex 41.0106 23.0902 7
    endloop
  endfacet
  facet normal 0 0 1
    outer loop
      vertex 43 40 7
      vertex 40.5483 24.2578 7
      vertex 40.7978 23.6812 7
    endloop
  endfacet
  facet normal 0 0 1
    outer loop
      vertex 43 40 7
      vertex 40.2631 24.8175 7
      vertex 40.5483 24.2578 7
    endloop
  endfacet
  facet normal 0 0 1
    outer loop
      vertex 43 40 7
      vertex 39.9433 25.3583 7
      vertex 40.2631 24.8175 7
    endloop
  endfacet
  facet normal 0 0 1
    outer loop
      vertex 43 40 7
      vertex 39.5902 25.8779 7
      vertex 39.9433 25.3583 7
    endloop
  endfacet
  facet normal 0 0 1
    outer loop
      vertex 43 40 7
      vertex 39.2051 26.3742 7
      vertex 39.5902 25.8779 7
    endloop
  endfacet
  facet normal 0 0 1
    outer loop
      vertex 43 40 7
      vertex 38.7897 26.8455 7
      vertex 39.2051 26.3742 7
    endloop
  endfacet
  facet normal 0 0 1
    outer loop
      vertex 43 40 7
      vertex 38.3455 27.2897 7
      vertex 38.7897 26.8455 7
    endloop
  endfacet
  facet normal 0 0 1
    outer loop
      vertex 43 40 7
      vertex 37.8742 27.7051 7
      vertex 38.3455 27.2897 7
    endloop
  endfacet
  facet normal 0 0 1
    outer loop
      vertex 43 40 7
      vertex 37.3779 28.0902 7
      vertex 37.8742 27.7051 7
    endloop
  endfacet
  facet normal 0 0 1
    outer loop
      vertex 43 40 7
      vertex 36.8583 28.4433 7
      vertex 37.3779 28.0902 7
    endloop
  endfacet
  facet normal 0 0 1
    outer loop
      vertex 43 40 7
      vertex 36.3175 28.7631 7
      vertex 36.8583 28.4433 7
    endloop
  endfacet
  facet normal 0 0 1
    outer loop
      vertex 43 40 7
      vertex 35.7578 29.0483 7
      vertex 36.3175 28.7631 7
    endloop
  endfacet
  facet normal 0 0 1
    outer loop
      vertex 43 40 7
      vertex 35.1812 29.2978 7
      vertex 35.7578 29.0483 7
    endloop
  endfacet
  facet normal 0 0 1
    outer loop
      vertex 43 40 7
      vertex 34.5902 29.5106 7
      vertex 35.1812 29.2978 7
    endloop
  endfacet
  facet normal 0 0 1
    outer loop
      vertex 43 40 7
      vertex 33.9869 29.6858 7
      vertex 34.5902 29.5106 7
    endloop
  endfacet
  facet normal 0 0 1
    outer loop
      vertex 43 40 7
      vertex 33.3738 29.8229 7
      vertex 33.9869 29.6858 7
    endloop
  endfacet
  facet normal 0 0 1
    outer loop
      vertex 43 40 7
      vertex 32.7533 29.9211 7
      vertex 33.3738 29.8229 7
    endloop
  endfacet
  facet normal 0 0 1
    outer loop
      vertex 43 40 7
      vertex 32.1279 29.9803 7
      vertex 32.7533 29.9211 7
    endloop
  endfacet
  facet normal 0 0 1
    outer loop
      vertex 43 40 7
      vertex 31.5 30 7
      vertex 32.1279 29.9803 7
    endloop
  endfacet
  facet normal -0 0 1
    outer loop
      vertex 20 40 7
      vertex 31.5 30 7
      vertex 43 40 7
    endloop
  endfacet
  facet normal 0 0 1
    outer loop
      vertex 31.5 30 7
      vertex 20 40 7
      vertex 30.8721 29.9803 7
    endloop
  endfacet
  facet normal 0 0 1
    outer loop
      vertex 30.8721 29.9803 7
      vertex 20 40 7
      vertex 30.2467 29.9211 7
    endloop
  endfacet
  facet normal 0 0 1
    outer loop
      vertex 30.2467 29.9211 7
      vertex 20 40 7
      vertex 29.6262 29.8229 7
    endloop
  endfacet
  facet normal 0 0 1
    outer loop
      vertex 29.6262 29.8229 7
      vertex 20 40 7
      vertex 29.0131 29.6858 7
    endloop
  endfacet
  facet normal 0 0 1
    outer loop
      vertex 29.0131 29.6858 7
      vertex 20 40 7
      vertex 28.4098 29.5106 7
    endloop
  endfacet
  facet normal 0 0 1
    outer loop
      vertex 28.4098 29.5106 7
      vertex 20 40 7
      vertex 27.8188 29.2978 7
    endloop
  endfacet
  facet normal 0 0 1
    outer loop
      vertex 27.8188 29.2978 7
      vertex 20 40 7
      vertex 27.2422 29.0483 7
    endloop
  endfacet
  facet normal 0 0 1
    outer loop
      vertex 27.2422 29.0483 7
      vertex 20 40 7
      vertex 26.6825 28.7631 7
    endloop
  endfacet
  facet normal 0 0 1
    outer loop
      vertex 26.6825 28.7631 7
      vertex 20 40 7
      vertex 26.1417 28.4433 7
    endloop
  endfacet
  facet normal 0 0 1
    outer loop
      vertex 21.5197 20.6279 7
      vertex 20 40 7
      vertex 21.5 20 7
    endloop
  endfacet
  facet normal 0 0 1
    outer loop
      vertex 21.5789 21.2533 7
      vertex 20 40 7
      vertex 21.5197 20.6279 7
    endloop
  endfacet
  facet normal 0 0 1
    outer loop
      vertex 21.6771 21.8738 7
      vertex 20 40 7
      vertex 21.5789 21.2533 7
    endloop
  endfacet
  facet normal 0 0 1
    outer loop
      vertex 21.8142 22.4869 7
      vertex 20 40 7
      vertex 21.6771 21.8738 7
    endloop
  endfacet
  facet normal 0 0 1
    outer loop
      vertex 21.9894 23.0902 7
      vertex 20 40 7
      vertex 21.8142 22.4869 7
    endloop
  endfacet
  facet normal 0 0 1
    outer loop
      vertex 22.2022 23.6812 7
      vertex 20 40 7
      vertex 21.9894 23.0902 7
    endloop
  endfacet
  facet normal 0 0 1
    outer loop
      vertex 22.4517 24.2578 7
      vertex 20 40 7
      vertex 22.2022 23.6812 7
    endloop
  endfacet
  facet normal 0 0 1
    outer loop
      vertex 22.7369 24.8175 7
      vertex 20 40 7
      vertex 22.4517 24.2578 7
    endloop
  endfacet
  facet normal 0 0 1
    outer loop
      vertex 23.0567 25.3583 7
      vertex 20 40 7
      vertex 22.7369 24.8175 7
    endloop
  endfacet
  facet normal 0 0 1
    outer loop
      vertex 23.4098 25.8779 7
      vertex 20 40 7
      vertex 23.0567 25.3583 7
    endloop
  endfacet
  facet normal 0 0 1
    outer loop
      vertex 23.7949 26.3742 7
      vertex 20 40 7
      vertex 23.4098 25.8779 7
    endloop
  endfacet
  facet normal 0 0 1
    outer loop
      vertex 24.2103 26.8455 7
      vertex 20 40 7
      vertex 23.7949 26.3742 7
    endloop
  endfacet
  facet normal 0 0 1
    outer loop
      vertex 24.6545 27.2897 7
      vertex 20 40 7
      vertex 24.2103 26.8455 7
    endloop
  endfacet
  facet normal 0 0 1
    outer loop
      vertex 25.1258 27.7051 7
      vertex 20 40 7
      vertex 24.6545 27.2897 7
    endloop
  endfacet
  facet normal 0 0 1
    outer loop
      vertex 25.6221 28.0902 7
      vertex 20 40 7
      vertex 25.1258 27.7051 7
    endloop
  endfacet
  facet normal 0 0 1
    outer loop
      vertex 26.1417 28.4433 7
      vertex 20 40 7
      vertex 25.6221 28.0902 7
    endloop
  endfacet
  facet normal -0 0 1
    outer loop
      vertex 41.4803 19.3721 7
      vertex 43 0 7
      vertex 41.5 20 7
    endloop
  endfacet
  facet normal -0 0 1
    outer loop
      vertex 41.4211 18.7467 7
      vertex 43 0 7
      vertex 41.4803 19.3721 7
    endloop
  endfacet
  facet normal -0 0 1
    outer loop
      vertex 41.3229 18.1262 7
      vertex 43 0 7
      vertex 41.4211 18.7467 7
    endloop
  endfacet
  facet normal -0 0 1
    outer loop
      vertex 41.1858 17.5131 7
      vertex 43 0 7
      vertex 41.3229 18.1262 7
    endloop
  endfacet
  facet normal -0 0 1
    outer loop
      vertex 41.0106 16.9098 7
      vertex 43 0 7
      vertex 41.1858 17.5131 7
    endloop
  endfacet
  facet normal -0 0 1
    outer loop
      vertex 40.7978 16.3188 7
      vertex 43 0 7
      vertex 41.0106 16.9098 7
    endloop
  endfacet
  facet normal -0 0 1
    outer loop
      vertex 40.5483 15.7422 7
      vertex 43 0 7
      vertex 40.7978 16.3188 7
    endloop
  endfacet
  facet normal -0 0 1
    outer loop
      vertex 40.2631 15.1825 7
      vertex 43 0 7
      vertex 40.5483 15.7422 7
    endloop
  endfacet
  facet normal -0 0 1
    outer loop
      vertex 39.9433 14.6417 7
      vertex 43 0 7
      vertex 40.2631 15.1825 7
    endloop
  endfacet
  facet normal -0 0 1
    outer loop
      vertex 39.5902 14.1221 7
      vertex 43 0 7
      vertex 39.9433 14.6417 7
    endloop
  endfacet
  facet normal -0 0 1
    outer loop
      vertex 39.2051 13.6258 7
      vertex 43 0 7
      vertex 39.5902 14.1221 7
    endloop
  endfacet
  facet normal -0 0 1
    outer loop
      vertex 38.7897 13.1545 7
      vertex 43 0 7
      vertex 39.2051 13.6258 7
    endloop
  endfacet
  facet normal -0 0 1
    outer loop
      vertex 38.3455 12.7103 7
      vertex 43 0 7
      vertex 38.7897 13.1545 7
    endloop
  endfacet
  facet normal -0 0 1
    outer loop
      vertex 37.8742 12.2949 7
      vertex 43 0 7
      vertex 38.3455 12.7103 7
    endloop
  endfacet
  facet normal -0 0 1
    outer loop
      vertex 37.3779 11.9098 7
      vertex 43 0 7
      vertex 37.8742 12.2949 7
    endloop
  endfacet
  facet normal -0 0 1
    outer loop
      vertex 36.8583 11.5567 7
      vertex 43 0 7
      vertex 37.3779 11.9098 7
    endloop
  endfacet
  facet normal -0 0 1
    outer loop
      vertex 36.3175 11.2369 7
      vertex 43 0 7
      vertex 36.8583 11.5567 7
    endloop
  endfacet
  facet normal -0 0 1
    outer loop
      vertex 35.7578 10.9517 7
      vertex 43 0 7
      vertex 36.3175 11.2369 7
    endloop
  endfacet
  facet normal -0 0 1
    outer loop
      vertex 35.1812 10.7022 7
      vertex 43 0 7
      vertex 35.7578 10.9517 7
    endloop
  endfacet
  facet normal -0 0 1
    outer loop
      vertex 34.5902 10.4894 7
      vertex 43 0 7
      vertex 35.1812 10.7022 7
    endloop
  endfacet
  facet normal -0 0 1
    outer loop
      vertex 33.9869 10.3142 7
      vertex 43 0 7
      vertex 34.5902 10.4894 7
    endloop
  endfacet
  facet normal -0 0 1
    outer loop
      vertex 33.3738 10.1771 7
      vertex 43 0 7
      vertex 33.9869 10.3142 7
    endloop
  endfacet
  facet normal -0 0 1
    outer loop
      vertex 32.7533 10.0789 7
      vertex 43 0 7
      vertex 33.3738 10.1771 7
    endloop
  endfacet
  facet normal -0 0 1
    outer loop
      vertex 32.1279 10.0197 7
      vertex 43 0 7
      vertex 32.7533 10.0789 7
    endloop
  endfacet
  facet normal -0 0 1
    outer loop
      vertex 31.5 10 7
      vertex 43 0 7
      vertex 32.1279 10.0197 7
    endloop
  endfacet
  facet normal 0 0 1
    outer loop
      vertex 20 0 7
      vertex 31.5 10 7
      vertex 30.8721 10.0197 7
    endloop
  endfacet
  facet normal 0 0 1
    outer loop
      vertex 20 0 7
      vertex 30.8721 10.0197 7
      vertex 30.2467 10.0789 7
    endloop
  endfacet
  facet normal 0 0 1
    outer loop
      vertex 20 0 7
      vertex 30.2467 10.0789 7
      vertex 29.6262 10.1771 7
    endloop
  endfacet
  facet normal 0 0 1
    outer loop
      vertex 20 0 7
      vertex 29.6262 10.1771 7
      vertex 29.0131 10.3142 7
    endloop
  endfacet
  facet normal 0 0 1
    outer loop
      vertex 20 0 7
      vertex 29.0131 10.3142 7
      vertex 28.4098 10.4894 7
    endloop
  endfacet
  facet normal 0 0 1
    outer loop
      vertex 20 0 7
      vertex 28.4098 10.4894 7
      vertex 27.8188 10.7022 7
    endloop
  endfacet
  facet normal 0 0 1
    outer loop
      vertex 20 0 7
      vertex 27.8188 10.7022 7
      vertex 27.2422 10.9517 7
    endloop
  endfacet
  facet normal 0 0 1
    outer loop
      vertex 20 0 7
      vertex 27.2422 10.9517 7
      vertex 26.6825 11.2369 7
    endloop
  endfacet
  facet normal 0 0 1
    outer loop
      vertex 20 0 7
      vertex 26.6825 11.2369 7
      vertex 26.1417 11.5567 7
    endloop
  endfacet
  facet normal 0 0 1
    outer loop
      vertex 20 0 7
      vertex 26.1417 11.5567 7
      vertex 25.6221 11.9098 7
    endloop
  endfacet
  facet normal 0 0 1
    outer loop
      vertex 20 0 7
      vertex 21.5 20 7
      vertex 20 40 7
    endloop
  endfacet
  facet normal 0 0 1
    outer loop
      vertex 31.5 10 7
      vertex 20 0 7
      vertex 43 0 7
    endloop
  endfacet
  facet normal 0 0 1
    outer loop
      vertex 25.1258 12.2949 7
      vertex 20 0 7
      vertex 25.6221 11.9098 7
    endloop
  endfacet
  facet normal 0 0 1
    outer loop
      vertex 24.6545 12.7103 7
      vertex 20 0 7
      vertex 25.1258 12.2949 7
    endloop
  endfacet
  facet normal 0 0 1
    outer loop
      vertex 24.2103 13.1545 7
      vertex 20 0 7
      vertex 24.6545 12.7103 7
    endloop
  endfacet
  facet normal 0 0 1
    outer loop
      vertex 23.7949 13.6258 7
      vertex 20 0 7
      vertex 24.2103 13.1545 7
    endloop
  endfacet
  facet normal 0 0 1
    outer loop
      vertex 23.4098 14.1221 7
      vertex 20 0 7
      vertex 23.7949 13.6258 7
    endloop
  endfacet
  facet normal 0 0 1
    outer loop
      vertex 23.0567 14.6417 7
      vertex 20 0 7
      vertex 23.4098 14.1221 7
    endloop
  endfacet
  facet normal 0 0 1
    outer loop
      vertex 22.7369 15.1825 7
      vertex 20 0 7
      vertex 23.0567 14.6417 7
    endloop
  endfacet
  facet normal 0 0 1
    outer loop
      vertex 22.4517 15.7422 7
      vertex 20 0 7
      vertex 22.7369 15.1825 7
    endloop
  endfacet
  facet normal 0 0 1
    outer loop
      vertex 22.2022 16.3188 7
      vertex 20 0 7
      vertex 22.4517 15.7422 7
    endloop
  endfacet
  facet normal 0 0 1
    outer loop
      vertex 21.9894 16.9098 7
      vertex 20 0 7
      vertex 22.2022 16.3188 7
    endloop
  endfacet
  facet normal 0 0 1
    outer loop
      vertex 21.8142 17.5131 7
      vertex 20 0 7
      vertex 21.9894 16.9098 7
    endloop
  endfacet
  facet normal 0 0 1
    outer loop
      vertex 21.6771 18.1262 7
      vertex 20 0 7
      vertex 21.8142 17.5131 7
    endloop
  endfacet
  facet normal 0 0 1
    outer loop
      vertex 21.5789 18.7467 7
      vertex 20 0 7
      vertex 21.6771 18.1262 7
    endloop
  endfacet
  facet normal 0 0 1
    outer loop
      vertex 21.5197 19.3721 7
      vertex 20 0 7
      vertex 21.5789 18.7467 7
    endloop
  endfacet
  facet normal 0 0 1
    outer loop
      vertex 21.5 20 7
      vertex 20 0 7
      vertex 21.5197 19.3721 7
    endloop
  endfacet
  facet normal 1 -0 0
    outer loop
      vertex 63 0 22
      vertex 63 40 0
      vertex 63 40 22
    endloop
  endfacet
  facet normal 1 0 0
    outer loop
      vertex 63 40 0
      vertex 63 0 22
      vertex 63 0 0
    endloop
  endfacet
  facet normal 0 0 -1
    outer loop
      vertex 63 0 0
      vertex 41.5 20 0
      vertex 63 40 0
    endloop
  endfacet
  facet normal 0 0 -1
    outer loop
      vertex 63 0 0
      vertex 41.4803 19.3721 0
      vertex 41.5 20 0
    endloop
  endfacet
  facet normal 0 0 -1
    outer loop
      vertex 63 0 0
      vertex 41.4211 18.7467 0
      vertex 41.4803 19.3721 0
    endloop
  endfacet
  facet normal 0 0 -1
    outer loop
      vertex 63 0 0
      vertex 41.3229 18.1262 0
      vertex 41.4211 18.7467 0
    endloop
  endfacet
  facet normal 0 0 -1
    outer loop
      vertex 63 0 0
      vertex 41.1858 17.5131 0
      vertex 41.3229 18.1262 0
    endloop
  endfacet
  facet normal 0 0 -1
    outer loop
      vertex 63 0 0
      vertex 41.0106 16.9098 0
      vertex 41.1858 17.5131 0
    endloop
  endfacet
  facet normal 0 0 -1
    outer loop
      vertex 63 0 0
      vertex 40.7978 16.3188 0
      vertex 41.0106 16.9098 0
    endloop
  endfacet
  facet normal 0 0 -1
    outer loop
      vertex 63 0 0
      vertex 40.5483 15.7422 0
      vertex 40.7978 16.3188 0
    endloop
  endfacet
  facet normal 0 0 -1
    outer loop
      vertex 63 0 0
      vertex 40.2631 15.1825 0
      vertex 40.5483 15.7422 0
    endloop
  endfacet
  facet normal 0 0 -1
    outer loop
      vertex 63 0 0
      vertex 39.9433 14.6417 0
      vertex 40.2631 15.1825 0
    endloop
  endfacet
  facet normal 0 0 -1
    outer loop
      vertex 63 0 0
      vertex 39.5902 14.1221 0
      vertex 39.9433 14.6417 0
    endloop
  endfacet
  facet normal 0 0 -1
    outer loop
      vertex 63 0 0
      vertex 39.2051 13.6258 0
      vertex 39.5902 14.1221 0
    endloop
  endfacet
  facet normal 0 0 -1
    outer loop
      vertex 63 0 0
      vertex 38.7897 13.1545 0
      vertex 39.2051 13.6258 0
    endloop
  endfacet
  facet normal 0 0 -1
    outer loop
      vertex 63 0 0
      vertex 38.3455 12.7103 0
      vertex 38.7897 13.1545 0
    endloop
  endfacet
  facet normal 0 0 -1
    outer loop
      vertex 63 0 0
      vertex 37.8742 12.2949 0
      vertex 38.3455 12.7103 0
    endloop
  endfacet
  facet normal 0 0 -1
    outer loop
      vertex 63 0 0
      vertex 37.3779 11.9098 0
      vertex 37.8742 12.2949 0
    endloop
  endfacet
  facet normal 0 0 -1
    outer loop
      vertex 63 0 0
      vertex 36.8583 11.5567 0
      vertex 37.3779 11.9098 0
    endloop
  endfacet
  facet normal 0 0 -1
    outer loop
      vertex 63 0 0
      vertex 36.3175 11.2369 0
      vertex 36.8583 11.5567 0
    endloop
  endfacet
  facet normal 0 0 -1
    outer loop
      vertex 63 0 0
      vertex 35.7578 10.9517 0
      vertex 36.3175 11.2369 0
    endloop
  endfacet
  facet normal 0 0 -1
    outer loop
      vertex 63 0 0
      vertex 35.1812 10.7022 0
      vertex 35.7578 10.9517 0
    endloop
  endfacet
  facet normal 0 0 -1
    outer loop
      vertex 63 0 0
      vertex 34.5902 10.4894 0
      vertex 35.1812 10.7022 0
    endloop
  endfacet
  facet normal 0 0 -1
    outer loop
      vertex 63 0 0
      vertex 33.9869 10.3142 0
      vertex 34.5902 10.4894 0
    endloop
  endfacet
  facet normal 0 0 -1
    outer loop
      vertex 63 0 0
      vertex 33.3738 10.1771 0
      vertex 33.9869 10.3142 0
    endloop
  endfacet
  facet normal 0 0 -1
    outer loop
      vertex 63 0 0
      vertex 32.7533 10.0789 0
      vertex 33.3738 10.1771 0
    endloop
  endfacet
  facet normal 0 0 -1
    outer loop
      vertex 63 0 0
      vertex 32.1279 10.0197 0
      vertex 32.7533 10.0789 0
    endloop
  endfacet
  facet normal 0 0 -1
    outer loop
      vertex 63 0 0
      vertex 31.5 10 0
      vertex 32.1279 10.0197 0
    endloop
  endfacet
  facet normal 0 0 -1
    outer loop
      vertex 0 0 0
      vertex 31.5 10 0
      vertex 63 0 0
    endloop
  endfacet
  facet normal -0 0 -1
    outer loop
      vertex 31.5 10 0
      vertex 0 0 0
      vertex 30.8721 10.0197 0
    endloop
  endfacet
  facet normal -0 0 -1
    outer loop
      vertex 30.8721 10.0197 0
      vertex 0 0 0
      vertex 30.2467 10.0789 0
    endloop
  endfacet
  facet normal -0 0 -1
    outer loop
      vertex 30.2467 10.0789 0
      vertex 0 0 0
      vertex 29.6262 10.1771 0
    endloop
  endfacet
  facet normal -0 0 -1
    outer loop
      vertex 29.6262 10.1771 0
      vertex 0 0 0
      vertex 29.0131 10.3142 0
    endloop
  endfacet
  facet normal -0 0 -1
    outer loop
      vertex 21.5197 19.3721 0
      vertex 0 0 0
      vertex 21.5 20 0
    endloop
  endfacet
  facet normal -0 0 -1
    outer loop
      vertex 21.5789 18.7467 0
      vertex 0 0 0
      vertex 21.5197 19.3721 0
    endloop
  endfacet
  facet normal -0 0 -1
    outer loop
      vertex 21.6771 18.1262 0
      vertex 0 0 0
      vertex 21.5789 18.7467 0
    endloop
  endfacet
  facet normal -0 0 -1
    outer loop
      vertex 21.8142 17.5131 0
      vertex 0 0 0
      vertex 21.6771 18.1262 0
    endloop
  endfacet
  facet normal -0 0 -1
    outer loop
      vertex 21.9894 16.9098 0
      vertex 0 0 0
      vertex 21.8142 17.5131 0
    endloop
  endfacet
  facet normal -0 0 -1
    outer loop
      vertex 22.2022 16.3188 0
      vertex 0 0 0
      vertex 21.9894 16.9098 0
    endloop
  endfacet
  facet normal -0 0 -1
    outer loop
      vertex 22.4517 15.7422 0
      vertex 0 0 0
      vertex 22.2022 16.3188 0
    endloop
  endfacet
  facet normal -0 0 -1
    outer loop
      vertex 22.7369 15.1825 0
      vertex 0 0 0
      vertex 22.4517 15.7422 0
    endloop
  endfacet
  facet normal -0 0 -1
    outer loop
      vertex 23.0567 14.6417 0
      vertex 0 0 0
      vertex 22.7369 15.1825 0
    endloop
  endfacet
  facet normal -0 0 -1
    outer loop
      vertex 23.4098 14.1221 0
      vertex 0 0 0
      vertex 23.0567 14.6417 0
    endloop
  endfacet
  facet normal -0 0 -1
    outer loop
      vertex 23.7949 13.6258 0
      vertex 0 0 0
      vertex 23.4098 14.1221 0
    endloop
  endfacet
  facet normal -0 0 -1
    outer loop
      vertex 24.2103 13.1545 0
      vertex 0 0 0
      vertex 23.7949 13.6258 0
    endloop
  endfacet
  facet normal -0 0 -1
    outer loop
      vertex 24.6545 12.7103 0
      vertex 0 0 0
      vertex 24.2103 13.1545 0
    endloop
  endfacet
  facet normal -0 0 -1
    outer loop
      vertex 25.1258 12.2949 0
      vertex 0 0 0
      vertex 24.6545 12.7103 0
    endloop
  endfacet
  facet normal -0 0 -1
    outer loop
      vertex 25.6221 11.9098 0
      vertex 0 0 0
      vertex 25.1258 12.2949 0
    endloop
  endfacet
  facet normal -0 0 -1
    outer loop
      vertex 26.1417 11.5567 0
      vertex 0 0 0
      vertex 25.6221 11.9098 0
    endloop
  endfacet
  facet normal -0 0 -1
    outer loop
      vertex 26.6825 11.2369 0
      vertex 0 0 0
      vertex 26.1417 11.5567 0
    endloop
  endfacet
  facet normal -0 0 -1
    outer loop
      vertex 27.2422 10.9517 0
      vertex 0 0 0
      vertex 26.6825 11.2369 0
    endloop
  endfacet
  facet normal -0 0 -1
    outer loop
      vertex 27.8188 10.7022 0
      vertex 0 0 0
      vertex 27.2422 10.9517 0
    endloop
  endfacet
  facet normal -0 0 -1
    outer loop
      vertex 28.4098 10.4894 0
      vertex 0 0 0
      vertex 27.8188 10.7022 0
    endloop
  endfacet
  facet normal -0 0 -1
    outer loop
      vertex 29.0131 10.3142 0
      vertex 0 0 0
      vertex 28.4098 10.4894 0
    endloop
  endfacet
  facet normal 0 0 -1
    outer loop
      vertex 41.4803 20.6279 0
      vertex 63 40 0
      vertex 41.5 20 0
    endloop
  endfacet
  facet normal 0 0 -1
    outer loop
      vertex 41.4211 21.2533 0
      vertex 63 40 0
      vertex 41.4803 20.6279 0
    endloop
  endfacet
  facet normal 0 0 -1
    outer loop
      vertex 41.3229 21.8738 0
      vertex 63 40 0
      vertex 41.4211 21.2533 0
    endloop
  endfacet
  facet normal 0 0 -1
    outer loop
      vertex 41.1858 22.4869 0
      vertex 63 40 0
      vertex 41.3229 21.8738 0
    endloop
  endfacet
  facet normal 0 0 -1
    outer loop
      vertex 41.0106 23.0902 0
      vertex 63 40 0
      vertex 41.1858 22.4869 0
    endloop
  endfacet
  facet normal 0 0 -1
    outer loop
      vertex 40.7978 23.6812 0
      vertex 63 40 0
      vertex 41.0106 23.0902 0
    endloop
  endfacet
  facet normal 0 0 -1
    outer loop
      vertex 40.5483 24.2578 0
      vertex 63 40 0
      vertex 40.7978 23.6812 0
    endloop
  endfacet
  facet normal 0 0 -1
    outer loop
      vertex 40.2631 24.8175 0
      vertex 63 40 0
      vertex 40.5483 24.2578 0
    endloop
  endfacet
  facet normal 0 0 -1
    outer loop
      vertex 39.9433 25.3583 0
      vertex 63 40 0
      vertex 40.2631 24.8175 0
    endloop
  endfacet
  facet normal 0 0 -1
    outer loop
      vertex 39.5902 25.8779 0
      vertex 63 40 0
      vertex 39.9433 25.3583 0
    endloop
  endfacet
  facet normal 0 0 -1
    outer loop
      vertex 39.2051 26.3742 0
      vertex 63 40 0
      vertex 39.5902 25.8779 0
    endloop
  endfacet
  facet normal 0 0 -1
    outer loop
      vertex 38.7897 26.8455 0
      vertex 63 40 0
      vertex 39.2051 26.3742 0
    endloop
  endfacet
  facet normal 0 0 -1
    outer loop
      vertex 38.3455 27.2897 0
      vertex 63 40 0
      vertex 38.7897 26.8455 0
    endloop
  endfacet
  facet normal 0 0 -1
    outer loop
      vertex 37.8742 27.7051 0
      vertex 63 40 0
      vertex 38.3455 27.2897 0
    endloop
  endfacet
  facet normal 0 0 -1
    outer loop
      vertex 37.3779 28.0902 0
      vertex 63 40 0
      vertex 37.8742 27.7051 0
    endloop
  endfacet
  facet normal 0 0 -1
    outer loop
      vertex 36.8583 28.4433 0
      vertex 63 40 0
      vertex 37.3779 28.0902 0
    endloop
  endfacet
  facet normal 0 0 -1
    outer loop
      vertex 36.3175 28.7631 0
      vertex 63 40 0
      vertex 36.8583 28.4433 0
    endloop
  endfacet
  facet normal 0 0 -1
    outer loop
      vertex 35.7578 29.0483 0
      vertex 63 40 0
      vertex 36.3175 28.7631 0
    endloop
  endfacet
  facet normal 0 0 -1
    outer loop
      vertex 35.1812 29.2978 0
      vertex 63 40 0
      vertex 35.7578 29.0483 0
    endloop
  endfacet
  facet normal 0 0 -1
    outer loop
      vertex 34.5902 29.5106 0
      vertex 63 40 0
      vertex 35.1812 29.2978 0
    endloop
  endfacet
  facet normal 0 0 -1
    outer loop
      vertex 33.9869 29.6858 0
      vertex 63 40 0
      vertex 34.5902 29.5106 0
    endloop
  endfacet
  facet normal 0 0 -1
    outer loop
      vertex 33.3738 29.8229 0
      vertex 63 40 0
      vertex 33.9869 29.6858 0
    endloop
  endfacet
  facet normal 0 0 -1
    outer loop
      vertex 32.7533 29.9211 0
      vertex 63 40 0
      vertex 33.3738 29.8229 0
    endloop
  endfacet
  facet normal 0 0 -1
    outer loop
      vertex 32.1279 29.9803 0
      vertex 63 40 0
      vertex 32.7533 29.9211 0
    endloop
  endfacet
  facet normal 0 0 -1
    outer loop
      vertex 31.5 30 0
      vertex 63 40 0
      vertex 32.1279 29.9803 0
    endloop
  endfacet
  facet normal 0 0 -1
    outer loop
      vertex 0 40 0
      vertex 31.5 30 0
      vertex 30.8721 29.9803 0
    endloop
  endfacet
  facet normal 0 0 -1
    outer loop
      vertex 0 40 0
      vertex 30.8721 29.9803 0
      vertex 30.2467 29.9211 0
    endloop
  endfacet
  facet normal 0 0 -1
    outer loop
      vertex 0 40 0
      vertex 30.2467 29.9211 0
      vertex 29.6262 29.8229 0
    endloop
  endfacet
  facet normal 0 0 -1
    outer loop
      vertex 0 40 0
      vertex 29.6262 29.8229 0
      vertex 29.0131 29.6858 0
    endloop
  endfacet
  facet normal 0 0 -1
    outer loop
      vertex 0 40 0
      vertex 29.0131 29.6858 0
      vertex 28.4098 29.5106 0
    endloop
  endfacet
  facet normal 0 0 -1
    outer loop
      vertex 0 40 0
      vertex 21.5 20 0
      vertex 0 0 0
    endloop
  endfacet
  facet normal 0 0 -1
    outer loop
      vertex 21.5 20 0
      vertex 0 40 0
      vertex 21.5197 20.6279 0
    endloop
  endfacet
  facet normal 0 0 -1
    outer loop
      vertex 21.5197 20.6279 0
      vertex 0 40 0
      vertex 21.5789 21.2533 0
    endloop
  endfacet
  facet normal 0 0 -1
    outer loop
      vertex 21.5789 21.2533 0
      vertex 0 40 0
      vertex 21.6771 21.8738 0
    endloop
  endfacet
  facet normal 0 0 -1
    outer loop
      vertex 21.6771 21.8738 0
      vertex 0 40 0
      vertex 21.8142 22.4869 0
    endloop
  endfacet
  facet normal 0 0 -1
    outer loop
      vertex 21.8142 22.4869 0
      vertex 0 40 0
      vertex 21.9894 23.0902 0
    endloop
  endfacet
  facet normal 0 0 -1
    outer loop
      vertex 21.9894 23.0902 0
      vertex 0 40 0
      vertex 22.2022 23.6812 0
    endloop
  endfacet
  facet normal 0 0 -1
    outer loop
      vertex 22.2022 23.6812 0
      vertex 0 40 0
      vertex 22.4517 24.2578 0
    endloop
  endfacet
  facet normal 0 0 -1
    outer loop
      vertex 22.4517 24.2578 0
      vertex 0 40 0
      vertex 22.7369 24.8175 0
    endloop
  endfacet
  facet normal 0 0 -1
    outer loop
      vertex 22.7369 24.8175 0
      vertex 0 40 0
      vertex 23.0567 25.3583 0
    endloop
  endfacet
  facet normal 0 0 -1
    outer loop
      vertex 23.0567 25.3583 0
      vertex 0 40 0
      vertex 23.4098 25.8779 0
    endloop
  endfacet
  facet normal 0 0 -1
    outer loop
      vertex 23.4098 25.8779 0
      vertex 0 40 0
      vertex 23.7949 26.3742 0
    endloop
  endfacet
  facet normal 0 0 -1
    outer loop
      vertex 31.5 30 0
      vertex 0 40 0
      vertex 63 40 0
    endloop
  endfacet
  facet normal 0 0 -1
    outer loop
      vertex 27.8188 29.2978 0
      vertex 0 40 0
      vertex 28.4098 29.5106 0
    endloop
  endfacet
  facet normal 0 0 -1
    outer loop
      vertex 27.2422 29.0483 0
      vertex 0 40 0
      vertex 27.8188 29.2978 0
    endloop
  endfacet
  facet normal 0 0 -1
    outer loop
      vertex 26.6825 28.7631 0
      vertex 0 40 0
      vertex 27.2422 29.0483 0
    endloop
  endfacet
  facet normal 0 0 -1
    outer loop
      vertex 26.1417 28.4433 0
      vertex 0 40 0
      vertex 26.6825 28.7631 0
    endloop
  endfacet
  facet normal 0 0 -1
    outer loop
      vertex 25.6221 28.0902 0
      vertex 0 40 0
      vertex 26.1417 28.4433 0
    endloop
  endfacet
  facet normal 0 0 -1
    outer loop
      vertex 25.1258 27.7051 0
      vertex 0 40 0
      vertex 25.6221 28.0902 0
    endloop
  endfacet
  facet normal 0 0 -1
    outer loop
      vertex 24.6545 27.2897 0
      vertex 0 40 0
      vertex 25.1258 27.7051 0
    endloop
  endfacet
  facet normal 0 0 -1
    outer loop
      vertex 24.2103 26.8455 0
      vertex 0 40 0
      vertex 24.6545 27.2897 0
    endloop
  endfacet
  facet normal 0 0 -1
    outer loop
      vertex 23.7949 26.3742 0
      vertex 0 40 0
      vertex 24.2103 26.8455 0
    endloop
  endfacet
  facet normal 0 -1 0
    outer loop
      vertex 0 0 22
      vertex 20 0 7
      vertex 20 0 22
    endloop
  endfacet
  facet normal 0 -1 -0
    outer loop
      vertex 20 0 7
      vertex 0 0 0
      vertex 43 0 7
    endloop
  endfacet
  facet normal 0 -1 0
    outer loop
      vertex 0 0 0
      vertex 20 0 7
      vertex 0 0 22
    endloop
  endfacet
  facet normal 0 -1 0
    outer loop
      vertex 43 0 7
      vertex 63 0 22
      vertex 43 0 22
    endloop
  endfacet
  facet normal 0 -1 0
    outer loop
      vertex 43 0 7
      vertex 63 0 0
      vertex 63 0 22
    endloop
  endfacet
  facet normal 0 -1 0
    outer loop
      vertex 63 0 0
      vertex 43 0 7
      vertex 0 0 0
    endloop
  endfacet
  facet normal 0 1 0
    outer loop
      vertex 63 40 22
      vertex 43 40 7
      vertex 43 40 22
    endloop
  endfacet
  facet normal 0 1 0
    outer loop
      vertex 43 40 7
      vertex 63 40 0
      vertex 20 40 7
    endloop
  endfacet
  facet normal 0 1 -0
    outer loop
      vertex 63 40 0
      vertex 43 40 7
      vertex 63 40 22
    endloop
  endfacet
  facet normal 0 1 -0
    outer loop
      vertex 20 40 7
      vertex 0 40 22
      vertex 20 40 22
    endloop
  endfacet
  facet normal 0 1 0
    outer loop
      vertex 20 40 7
      vertex 0 40 0
      vertex 0 40 22
    endloop
  endfacet
  facet normal 0 1 0
    outer loop
      vertex 0 40 0
      vertex 20 40 7
      vertex 63 40 0
    endloop
  endfacet
  facet normal -0 0 1
    outer loop
      vertex 0 40 22
      vertex 20 0 22
      vertex 20 40 22
    endloop
  endfacet
  facet normal 0 0 1
    outer loop
      vertex 20 0 22
      vertex 0 40 22
      vertex 0 0 22
    endloop
  endfacet
  facet normal 1 -0 0
    outer loop
      vertex 20 0 22
      vertex 20 40 7
      vertex 20 40 22
    endloop
  endfacet
  facet normal 1 0 0
    outer loop
      vertex 20 40 7
      vertex 20 0 22
      vertex 20 0 7
    endloop
  endfacet
  facet normal -1 0 0
    outer loop
      vertex 43 0 7
      vertex 43 40 22
      vertex 43 40 7
    endloop
  endfacet
  facet normal -1 -0 0
    outer loop
      vertex 43 40 22
      vertex 43 0 7
      vertex 43 0 22
    endloop
  endfacet
  facet normal -0 0 1
    outer loop
      vertex 43 40 22
      vertex 63 0 22
      vertex 63 40 22
    endloop
  endfacet
  facet normal 0 0 1
    outer loop
      vertex 63 0 22
      vertex 43 40 22
      vertex 43 0 22
    endloop
  endfacet
  facet normal 0.94088 -0.33874 0
    outer loop
      vertex 21.9894 23.0902 7
      vertex 22.2022 23.6812 0
      vertex 22.2022 23.6812 7
    endloop
  endfacet
  facet normal 0.94088 -0.33874 0
    outer loop
      vertex 22.2022 23.6812 0
      vertex 21.9894 23.0902 7
      vertex 21.9894 23.0902 0
    endloop
  endfacet
  facet normal 0.891006 0.453991 0
    outer loop
      vertex 22.7369 15.1825 7
      vertex 22.4517 15.7422 0
      vertex 22.4517 15.7422 7
    endloop
  endfacet
  facet normal 0.891006 0.453991 0
    outer loop
      vertex 22.4517 15.7422 0
      vertex 22.7369 15.1825 7
      vertex 22.7369 15.1825 0
    endloop
  endfacet
  facet normal -0.975916 -0.218147 0
    outer loop
      vertex 41.3229 21.8738 0
      vertex 41.1858 22.4869 7
      vertex 41.1858 22.4869 0
    endloop
  endfacet
  facet normal -0.975916 -0.218147 0
    outer loop
      vertex 41.1858 22.4869 7
      vertex 41.3229 21.8738 0
      vertex 41.3229 21.8738 7
    endloop
  endfacet
  facet normal -0.960295 -0.278985 0
    outer loop
      vertex 41.1858 22.4869 0
      vertex 41.0106 23.0902 7
      vertex 41.0106 23.0902 0
    endloop
  endfacet
  facet normal -0.960295 -0.278985 0
    outer loop
      vertex 41.0106 23.0902 7
      vertex 41.1858 22.4869 0
      vertex 41.1858 22.4869 7
    endloop
  endfacet
  facet normal -0.790152 -0.612911 0
    outer loop
      vertex 39.5902 25.8779 0
      vertex 39.2051 26.3742 7
      vertex 39.2051 26.3742 0
    endloop
  endfacet
  facet normal -0.790152 -0.612911 0
    outer loop
      vertex 39.2051 26.3742 7
      vertex 39.5902 25.8779 0
      vertex 39.5902 25.8779 7
    endloop
  endfacet
  facet normal -0.453994 -0.891005 0
    outer loop
      vertex 35.7578 29.0483 0
      vertex 36.3175 28.7631 7
      vertex 35.7578 29.0483 7
    endloop
  endfacet
  facet normal -0.453994 -0.891005 -0
    outer loop
      vertex 36.3175 28.7631 7
      vertex 35.7578 29.0483 0
      vertex 36.3175 28.7631 0
    endloop
  endfacet
  facet normal 0.33874 -0.94088 0
    outer loop
      vertex 27.8188 29.2978 0
      vertex 28.4098 29.5106 7
      vertex 27.8188 29.2978 7
    endloop
  endfacet
  facet normal 0.33874 -0.94088 0
    outer loop
      vertex 28.4098 29.5106 7
      vertex 27.8188 29.2978 0
      vertex 28.4098 29.5106 0
    endloop
  endfacet
  facet normal 0.612908 -0.790154 0
    outer loop
      vertex 25.1258 27.7051 0
      vertex 25.6221 28.0902 7
      vertex 25.1258 27.7051 7
    endloop
  endfacet
  facet normal 0.612908 -0.790154 0
    outer loop
      vertex 25.6221 28.0902 7
      vertex 25.1258 27.7051 0
      vertex 25.6221 28.0902 0
    endloop
  endfacet
  facet normal -0.750113 0.661309 0
    outer loop
      vertex 38.7897 13.1545 0
      vertex 39.2051 13.6258 7
      vertex 39.2051 13.6258 0
    endloop
  endfacet
  facet normal -0.750113 0.661309 0
    outer loop
      vertex 39.2051 13.6258 7
      vertex 38.7897 13.1545 0
      vertex 38.7897 13.1545 7
    endloop
  endfacet
  facet normal -0.278991 0.960294 0
    outer loop
      vertex 34.5902 10.4894 0
      vertex 33.9869 10.3142 7
      vertex 34.5902 10.4894 7
    endloop
  endfacet
  facet normal -0.278991 0.960294 0
    outer loop
      vertex 33.9869 10.3142 7
      vertex 34.5902 10.4894 0
      vertex 33.9869 10.3142 0
    endloop
  endfacet
  facet normal -0.707105 0.707108 0
    outer loop
      vertex 38.7897 13.1545 0
      vertex 38.3455 12.7103 7
      vertex 38.7897 13.1545 7
    endloop
  endfacet
  facet normal -0.707105 0.707108 0
    outer loop
      vertex 38.3455 12.7103 7
      vertex 38.7897 13.1545 0
      vertex 38.3455 12.7103 0
    endloop
  endfacet
  facet normal 0.0314103 0.999507 -0
    outer loop
      vertex 31.5 10 0
      vertex 30.8721 10.0197 7
      vertex 31.5 10 7
    endloop
  endfacet
  facet normal 0.0314103 0.999507 0
    outer loop
      vertex 30.8721 10.0197 7
      vertex 31.5 10 0
      vertex 30.8721 10.0197 0
    endloop
  endfacet
  facet normal 0.509042 0.860742 -0
    outer loop
      vertex 26.6825 11.2369 0
      vertex 26.1417 11.5567 7
      vertex 26.6825 11.2369 7
    endloop
  endfacet
  facet normal 0.509042 0.860742 0
    outer loop
      vertex 26.1417 11.5567 7
      vertex 26.6825 11.2369 0
      vertex 26.1417 11.5567 0
    endloop
  endfacet
  facet normal -0.891005 -0.453994 0
    outer loop
      vertex 40.5483 24.2578 0
      vertex 40.2631 24.8175 7
      vertex 40.2631 24.8175 0
    endloop
  endfacet
  facet normal -0.891005 -0.453994 0
    outer loop
      vertex 40.2631 24.8175 7
      vertex 40.5483 24.2578 0
      vertex 40.5483 24.2578 7
    endloop
  endfacet
  facet normal -0.707105 -0.707108 0
    outer loop
      vertex 38.3455 27.2897 0
      vertex 38.7897 26.8455 7
      vertex 38.3455 27.2897 7
    endloop
  endfacet
  facet normal -0.707105 -0.707108 -0
    outer loop
      vertex 38.7897 26.8455 7
      vertex 38.3455 27.2897 0
      vertex 38.7897 26.8455 0
    endloop
  endfacet
  facet normal 0.0314118 -0.999507 0
    outer loop
      vertex 30.8721 29.9803 0
      vertex 31.5 30 7
      vertex 30.8721 29.9803 7
    endloop
  endfacet
  facet normal 0.0314118 -0.999507 0
    outer loop
      vertex 31.5 30 7
      vertex 30.8721 29.9803 0
      vertex 31.5 30 0
    endloop
  endfacet
  facet normal -0.562083 -0.827081 0
    outer loop
      vertex 36.8583 28.4433 0
      vertex 37.3779 28.0902 7
      vertex 36.8583 28.4433 7
    endloop
  endfacet
  facet normal -0.562083 -0.827081 -0
    outer loop
      vertex 37.3779 28.0902 7
      vertex 36.8583 28.4433 0
      vertex 37.3779 28.0902 0
    endloop
  endfacet
  facet normal -0.338741 -0.94088 0
    outer loop
      vertex 34.5902 29.5106 0
      vertex 35.1812 29.2978 7
      vertex 34.5902 29.5106 7
    endloop
  endfacet
  facet normal -0.338741 -0.94088 -0
    outer loop
      vertex 35.1812 29.2978 7
      vertex 34.5902 29.5106 0
      vertex 35.1812 29.2978 0
    endloop
  endfacet
  facet normal -0.156434 -0.987688 0
    outer loop
      vertex 32.7533 29.9211 0
      vertex 33.3738 29.8229 7
      vertex 32.7533 29.9211 7
    endloop
  endfacet
  facet normal -0.156434 -0.987688 -0
    outer loop
      vertex 33.3738 29.8229 7
      vertex 32.7533 29.9211 0
      vertex 33.3738 29.8229 0
    endloop
  endfacet
  facet normal -0.0314118 -0.999507 0
    outer loop
      vertex 31.5 30 0
      vertex 32.1279 29.9803 7
      vertex 31.5 30 7
    endloop
  endfacet
  facet normal -0.0314118 -0.999507 -0
    outer loop
      vertex 32.1279 29.9803 7
      vertex 31.5 30 0
      vertex 32.1279 29.9803 0
    endloop
  endfacet
  facet normal 0.987688 -0.156434 0
    outer loop
      vertex 21.5789 21.2533 7
      vertex 21.6771 21.8738 0
      vertex 21.6771 21.8738 7
    endloop
  endfacet
  facet normal 0.987688 -0.156434 0
    outer loop
      vertex 21.6771 21.8738 0
      vertex 21.5789 21.2533 7
      vertex 21.5789 21.2533 0
    endloop
  endfacet
  facet normal 0.995562 -0.0941082 0
    outer loop
      vertex 21.5197 20.6279 7
      vertex 21.5789 21.2533 0
      vertex 21.5789 21.2533 7
    endloop
  endfacet
  facet normal 0.995562 -0.0941082 0
    outer loop
      vertex 21.5789 21.2533 0
      vertex 21.5197 20.6279 7
      vertex 21.5197 20.6279 0
    endloop
  endfacet
  facet normal 0.790152 -0.612911 0
    outer loop
      vertex 23.4098 25.8779 7
      vertex 23.7949 26.3742 0
      vertex 23.7949 26.3742 7
    endloop
  endfacet
  facet normal 0.790152 -0.612911 0
    outer loop
      vertex 23.7949 26.3742 0
      vertex 23.4098 25.8779 7
      vertex 23.4098 25.8779 0
    endloop
  endfacet
  facet normal 0.917755 -0.397147 0
    outer loop
      vertex 22.2022 23.6812 7
      vertex 22.4517 24.2578 0
      vertex 22.4517 24.2578 7
    endloop
  endfacet
  facet normal 0.917755 -0.397147 0
    outer loop
      vertex 22.4517 24.2578 0
      vertex 22.2022 23.6812 7
      vertex 22.2022 23.6812 0
    endloop
  endfacet
  facet normal 0.156434 -0.987688 0
    outer loop
      vertex 29.6262 29.8229 0
      vertex 30.2467 29.9211 7
      vertex 29.6262 29.8229 7
    endloop
  endfacet
  facet normal 0.156434 -0.987688 0
    outer loop
      vertex 30.2467 29.9211 7
      vertex 29.6262 29.8229 0
      vertex 30.2467 29.9211 0
    endloop
  endfacet
  facet normal 0.278991 -0.960294 0
    outer loop
      vertex 28.4098 29.5106 0
      vertex 29.0131 29.6858 7
      vertex 28.4098 29.5106 7
    endloop
  endfacet
  facet normal 0.278991 -0.960294 0
    outer loop
      vertex 29.0131 29.6858 7
      vertex 28.4098 29.5106 0
      vertex 29.0131 29.6858 0
    endloop
  endfacet
  facet normal 0.218143 -0.975917 0
    outer loop
      vertex 29.0131 29.6858 0
      vertex 29.6262 29.8229 7
      vertex 29.0131 29.6858 7
    endloop
  endfacet
  facet normal 0.218143 -0.975917 0
    outer loop
      vertex 29.6262 29.8229 7
      vertex 29.0131 29.6858 0
      vertex 29.6262 29.8229 0
    endloop
  endfacet
  facet normal 0.453993 -0.891005 0
    outer loop
      vertex 26.6825 28.7631 0
      vertex 27.2422 29.0483 7
      vertex 26.6825 28.7631 7
    endloop
  endfacet
  facet normal 0.453993 -0.891005 0
    outer loop
      vertex 27.2422 29.0483 7
      vertex 26.6825 28.7631 0
      vertex 27.2422 29.0483 0
    endloop
  endfacet
  facet normal 0.707105 -0.707108 0
    outer loop
      vertex 24.2103 26.8455 0
      vertex 24.6545 27.2897 7
      vertex 24.2103 26.8455 7
    endloop
  endfacet
  facet normal 0.707105 -0.707108 0
    outer loop
      vertex 24.6545 27.2897 7
      vertex 24.2103 26.8455 0
      vertex 24.6545 27.2897 0
    endloop
  endfacet
  facet normal -0.999507 -0.0314119 0
    outer loop
      vertex 41.5 20 0
      vertex 41.4803 20.6279 7
      vertex 41.4803 20.6279 0
    endloop
  endfacet
  facet normal -0.999507 -0.0314119 0
    outer loop
      vertex 41.4803 20.6279 7
      vertex 41.5 20 0
      vertex 41.5 20 7
    endloop
  endfacet
  facet normal -0.218143 0.975917 0
    outer loop
      vertex 33.9869 10.3142 0
      vertex 33.3738 10.1771 7
      vertex 33.9869 10.3142 7
    endloop
  endfacet
  facet normal -0.218143 0.975917 0
    outer loop
      vertex 33.3738 10.1771 7
      vertex 33.9869 10.3142 0
      vertex 33.3738 10.1771 0
    endloop
  endfacet
  facet normal -0.453992 0.891006 0
    outer loop
      vertex 36.3175 11.2369 0
      vertex 35.7578 10.9517 7
      vertex 36.3175 11.2369 7
    endloop
  endfacet
  facet normal -0.453992 0.891006 0
    outer loop
      vertex 35.7578 10.9517 7
      vertex 36.3175 11.2369 0
      vertex 35.7578 10.9517 0
    endloop
  endfacet
  facet normal 0.156434 0.987688 -0
    outer loop
      vertex 30.2467 10.0789 0
      vertex 29.6262 10.1771 7
      vertex 30.2467 10.0789 7
    endloop
  endfacet
  facet normal 0.156434 0.987688 0
    outer loop
      vertex 29.6262 10.1771 7
      vertex 30.2467 10.0789 0
      vertex 29.6262 10.1771 0
    endloop
  endfacet
  facet normal 0.0941082 0.995562 -0
    outer loop
      vertex 30.8721 10.0197 0
      vertex 30.2467 10.0789 7
      vertex 30.8721 10.0197 7
    endloop
  endfacet
  facet normal 0.0941082 0.995562 0
    outer loop
      vertex 30.2467 10.0789 7
      vertex 30.8721 10.0197 0
      vertex 30.2467 10.0789 0
    endloop
  endfacet
  facet normal 0.338738 0.940881 -0
    outer loop
      vertex 28.4098 10.4894 0
      vertex 27.8188 10.7022 7
      vertex 28.4098 10.4894 7
    endloop
  endfacet
  facet normal 0.338738 0.940881 0
    outer loop
      vertex 27.8188 10.7022 7
      vertex 28.4098 10.4894 0
      vertex 27.8188 10.7022 0
    endloop
  endfacet
  facet normal 0.960294 0.278991 0
    outer loop
      vertex 21.9894 16.9098 7
      vertex 21.8142 17.5131 0
      vertex 21.8142 17.5131 7
    endloop
  endfacet
  facet normal 0.960294 0.278991 0
    outer loop
      vertex 21.8142 17.5131 0
      vertex 21.9894 16.9098 7
      vertex 21.9894 16.9098 0
    endloop
  endfacet
  facet normal -0.987688 -0.156434 0
    outer loop
      vertex 41.4211 21.2533 0
      vertex 41.3229 21.8738 7
      vertex 41.3229 21.8738 0
    endloop
  endfacet
  facet normal -0.987688 -0.156434 0
    outer loop
      vertex 41.3229 21.8738 7
      vertex 41.4211 21.2533 0
      vertex 41.4211 21.2533 7
    endloop
  endfacet
  facet normal -0.917756 -0.397144 0
    outer loop
      vertex 40.7978 23.6812 0
      vertex 40.5483 24.2578 7
      vertex 40.5483 24.2578 0
    endloop
  endfacet
  facet normal -0.917756 -0.397144 0
    outer loop
      vertex 40.5483 24.2578 7
      vertex 40.7978 23.6812 0
      vertex 40.7978 23.6812 7
    endloop
  endfacet
  facet normal -0.940879 -0.338742 0
    outer loop
      vertex 41.0106 23.0902 0
      vertex 40.7978 23.6812 7
      vertex 40.7978 23.6812 0
    endloop
  endfacet
  facet normal -0.940879 -0.338742 0
    outer loop
      vertex 40.7978 23.6812 7
      vertex 41.0106 23.0902 0
      vertex 41.0106 23.0902 7
    endloop
  endfacet
  facet normal -0.860744 -0.509038 0
    outer loop
      vertex 40.2631 24.8175 0
      vertex 39.9433 25.3583 7
      vertex 39.9433 25.3583 0
    endloop
  endfacet
  facet normal -0.860744 -0.509038 0
    outer loop
      vertex 39.9433 25.3583 7
      vertex 40.2631 24.8175 0
      vertex 40.2631 24.8175 7
    endloop
  endfacet
  facet normal -0.827082 -0.562081 0
    outer loop
      vertex 39.9433 25.3583 0
      vertex 39.5902 25.8779 7
      vertex 39.5902 25.8779 0
    endloop
  endfacet
  facet normal -0.827082 -0.562081 0
    outer loop
      vertex 39.5902 25.8779 7
      vertex 39.9433 25.3583 0
      vertex 39.9433 25.3583 7
    endloop
  endfacet
  facet normal -0.750113 -0.661309 0
    outer loop
      vertex 39.2051 26.3742 0
      vertex 38.7897 26.8455 7
      vertex 38.7897 26.8455 0
    endloop
  endfacet
  facet normal -0.750113 -0.661309 0
    outer loop
      vertex 38.7897 26.8455 7
      vertex 39.2051 26.3742 0
      vertex 39.2051 26.3742 7
    endloop
  endfacet
  facet normal -0.661309 -0.750113 0
    outer loop
      vertex 37.8742 27.7051 0
      vertex 38.3455 27.2897 7
      vertex 37.8742 27.7051 7
    endloop
  endfacet
  facet normal -0.661309 -0.750113 -0
    outer loop
      vertex 38.3455 27.2897 7
      vertex 37.8742 27.7051 0
      vertex 38.3455 27.2897 0
    endloop
  endfacet
  facet normal -0.509038 -0.860744 0
    outer loop
      vertex 36.3175 28.7631 0
      vertex 36.8583 28.4433 7
      vertex 36.3175 28.7631 7
    endloop
  endfacet
  facet normal -0.509038 -0.860744 -0
    outer loop
      vertex 36.8583 28.4433 7
      vertex 36.3175 28.7631 0
      vertex 36.8583 28.4433 0
    endloop
  endfacet
  facet normal -0.612911 -0.790152 0
    outer loop
      vertex 37.3779 28.0902 0
      vertex 37.8742 27.7051 7
      vertex 37.3779 28.0902 7
    endloop
  endfacet
  facet normal -0.612911 -0.790152 -0
    outer loop
      vertex 37.8742 27.7051 7
      vertex 37.3779 28.0902 0
      vertex 37.8742 27.7051 0
    endloop
  endfacet
  facet normal -0.397144 -0.917756 0
    outer loop
      vertex 35.1812 29.2978 0
      vertex 35.7578 29.0483 7
      vertex 35.1812 29.2978 7
    endloop
  endfacet
  facet normal -0.397144 -0.917756 -0
    outer loop
      vertex 35.7578 29.0483 7
      vertex 35.1812 29.2978 0
      vertex 35.7578 29.0483 0
    endloop
  endfacet
  facet normal -0.278991 -0.960294 0
    outer loop
      vertex 33.9869 29.6858 0
      vertex 34.5902 29.5106 7
      vertex 33.9869 29.6858 7
    endloop
  endfacet
  facet normal -0.278991 -0.960294 -0
    outer loop
      vertex 34.5902 29.5106 7
      vertex 33.9869 29.6858 0
      vertex 34.5902 29.5106 0
    endloop
  endfacet
  facet normal -0.218143 -0.975917 0
    outer loop
      vertex 33.3738 29.8229 0
      vertex 33.9869 29.6858 7
      vertex 33.3738 29.8229 7
    endloop
  endfacet
  facet normal -0.218143 -0.975917 -0
    outer loop
      vertex 33.9869 29.6858 7
      vertex 33.3738 29.8229 0
      vertex 33.9869 29.6858 0
    endloop
  endfacet
  facet normal -0.0941082 -0.995562 0
    outer loop
      vertex 32.1279 29.9803 0
      vertex 32.7533 29.9211 7
      vertex 32.1279 29.9803 7
    endloop
  endfacet
  facet normal -0.0941082 -0.995562 -0
    outer loop
      vertex 32.7533 29.9211 7
      vertex 32.1279 29.9803 0
      vertex 32.7533 29.9211 0
    endloop
  endfacet
  facet normal 0.999507 0.0314118 0
    outer loop
      vertex 21.5197 19.3721 7
      vertex 21.5 20 0
      vertex 21.5 20 7
    endloop
  endfacet
  facet normal 0.999507 0.0314118 0
    outer loop
      vertex 21.5 20 0
      vertex 21.5197 19.3721 7
      vertex 21.5197 19.3721 0
    endloop
  endfacet
  facet normal 0.960294 -0.278991 0
    outer loop
      vertex 21.8142 22.4869 7
      vertex 21.9894 23.0902 0
      vertex 21.9894 23.0902 7
    endloop
  endfacet
  facet normal 0.960294 -0.278991 0
    outer loop
      vertex 21.9894 23.0902 0
      vertex 21.8142 22.4869 7
      vertex 21.8142 22.4869 0
    endloop
  endfacet
  facet normal 0.975917 -0.218141 0
    outer loop
      vertex 21.6771 21.8738 7
      vertex 21.8142 22.4869 0
      vertex 21.8142 22.4869 7
    endloop
  endfacet
  facet normal 0.975917 -0.218141 0
    outer loop
      vertex 21.8142 22.4869 0
      vertex 21.6771 21.8738 7
      vertex 21.6771 21.8738 0
    endloop
  endfacet
  facet normal 0.891006 -0.453992 0
    outer loop
      vertex 22.4517 24.2578 7
      vertex 22.7369 24.8175 0
      vertex 22.7369 24.8175 7
    endloop
  endfacet
  facet normal 0.891006 -0.453992 0
    outer loop
      vertex 22.7369 24.8175 0
      vertex 22.4517 24.2578 7
      vertex 22.4517 24.2578 0
    endloop
  endfacet
  facet normal 0.827082 -0.562081 0
    outer loop
      vertex 23.0567 25.3583 7
      vertex 23.4098 25.8779 0
      vertex 23.4098 25.8779 7
    endloop
  endfacet
  facet normal 0.827082 -0.562081 0
    outer loop
      vertex 23.4098 25.8779 0
      vertex 23.0567 25.3583 7
      vertex 23.0567 25.3583 0
    endloop
  endfacet
  facet normal 0.750113 -0.661309 0
    outer loop
      vertex 23.7949 26.3742 7
      vertex 24.2103 26.8455 0
      vertex 24.2103 26.8455 7
    endloop
  endfacet
  facet normal 0.750113 -0.661309 0
    outer loop
      vertex 24.2103 26.8455 0
      vertex 23.7949 26.3742 7
      vertex 23.7949 26.3742 0
    endloop
  endfacet
  facet normal 0.860743 -0.50904 0
    outer loop
      vertex 22.7369 24.8175 7
      vertex 23.0567 25.3583 0
      vertex 23.0567 25.3583 7
    endloop
  endfacet
  facet normal 0.860743 -0.50904 0
    outer loop
      vertex 23.0567 25.3583 0
      vertex 22.7369 24.8175 7
      vertex 22.7369 24.8175 0
    endloop
  endfacet
  facet normal 0.397145 -0.917756 0
    outer loop
      vertex 27.2422 29.0483 0
      vertex 27.8188 29.2978 7
      vertex 27.2422 29.0483 7
    endloop
  endfacet
  facet normal 0.397145 -0.917756 0
    outer loop
      vertex 27.8188 29.2978 7
      vertex 27.2422 29.0483 0
      vertex 27.8188 29.2978 0
    endloop
  endfacet
  facet normal 0.0941082 -0.995562 0
    outer loop
      vertex 30.2467 29.9211 0
      vertex 30.8721 29.9803 7
      vertex 30.2467 29.9211 7
    endloop
  endfacet
  facet normal 0.0941082 -0.995562 0
    outer loop
      vertex 30.8721 29.9803 7
      vertex 30.2467 29.9211 0
      vertex 30.8721 29.9803 0
    endloop
  endfacet
  facet normal 0.50904 -0.860743 0
    outer loop
      vertex 26.1417 28.4433 0
      vertex 26.6825 28.7631 7
      vertex 26.1417 28.4433 7
    endloop
  endfacet
  facet normal 0.50904 -0.860743 0
    outer loop
      vertex 26.6825 28.7631 7
      vertex 26.1417 28.4433 0
      vertex 26.6825 28.7631 0
    endloop
  endfacet
  facet normal 0.562083 -0.827081 0
    outer loop
      vertex 25.6221 28.0902 0
      vertex 26.1417 28.4433 7
      vertex 25.6221 28.0902 7
    endloop
  endfacet
  facet normal 0.562083 -0.827081 0
    outer loop
      vertex 26.1417 28.4433 7
      vertex 25.6221 28.0902 0
      vertex 26.1417 28.4433 0
    endloop
  endfacet
  facet normal 0.661312 -0.750111 0
    outer loop
      vertex 24.6545 27.2897 0
      vertex 25.1258 27.7051 7
      vertex 24.6545 27.2897 7
    endloop
  endfacet
  facet normal 0.661312 -0.750111 0
    outer loop
      vertex 25.1258 27.7051 7
      vertex 24.6545 27.2897 0
      vertex 25.1258 27.7051 0
    endloop
  endfacet
  facet normal -0.995562 0.0941082 0
    outer loop
      vertex 41.4211 18.7467 0
      vertex 41.4803 19.3721 7
      vertex 41.4803 19.3721 0
    endloop
  endfacet
  facet normal -0.995562 0.0941082 0
    outer loop
      vertex 41.4803 19.3721 7
      vertex 41.4211 18.7467 0
      vertex 41.4211 18.7467 7
    endloop
  endfacet
  facet normal -0.0941082 0.995562 0
    outer loop
      vertex 32.7533 10.0789 0
      vertex 32.1279 10.0197 7
      vertex 32.7533 10.0789 7
    endloop
  endfacet
  facet normal -0.0941082 0.995562 0
    outer loop
      vertex 32.1279 10.0197 7
      vertex 32.7533 10.0789 0
      vertex 32.1279 10.0197 0
    endloop
  endfacet
  facet normal -0.987688 0.156434 0
    outer loop
      vertex 41.3229 18.1262 0
      vertex 41.4211 18.7467 7
      vertex 41.4211 18.7467 0
    endloop
  endfacet
  facet normal -0.987688 0.156434 0
    outer loop
      vertex 41.4211 18.7467 7
      vertex 41.3229 18.1262 0
      vertex 41.3229 18.1262 7
    endloop
  endfacet
  facet normal -0.999507 0.0314118 0
    outer loop
      vertex 41.4803 19.3721 0
      vertex 41.5 20 7
      vertex 41.5 20 0
    endloop
  endfacet
  facet normal -0.999507 0.0314118 0
    outer loop
      vertex 41.5 20 7
      vertex 41.4803 19.3721 0
      vertex 41.4803 19.3721 7
    endloop
  endfacet
  facet normal -0.960295 0.278985 0
    outer loop
      vertex 41.0106 16.9098 0
      vertex 41.1858 17.5131 7
      vertex 41.1858 17.5131 0
    endloop
  endfacet
  facet normal -0.960295 0.278985 0
    outer loop
      vertex 41.1858 17.5131 7
      vertex 41.0106 16.9098 0
      vertex 41.0106 16.9098 7
    endloop
  endfacet
  facet normal -0.940879 0.338742 0
    outer loop
      vertex 40.7978 16.3188 0
      vertex 41.0106 16.9098 7
      vertex 41.0106 16.9098 0
    endloop
  endfacet
  facet normal -0.940879 0.338742 0
    outer loop
      vertex 41.0106 16.9098 7
      vertex 40.7978 16.3188 0
      vertex 40.7978 16.3188 7
    endloop
  endfacet
  facet normal -0.827082 0.562081 0
    outer loop
      vertex 39.5902 14.1221 0
      vertex 39.9433 14.6417 7
      vertex 39.9433 14.6417 0
    endloop
  endfacet
  facet normal -0.827082 0.562081 0
    outer loop
      vertex 39.9433 14.6417 7
      vertex 39.5902 14.1221 0
      vertex 39.5902 14.1221 7
    endloop
  endfacet
  facet normal -0.156434 0.987688 0
    outer loop
      vertex 33.3738 10.1771 0
      vertex 32.7533 10.0789 7
      vertex 33.3738 10.1771 7
    endloop
  endfacet
  facet normal -0.156434 0.987688 0
    outer loop
      vertex 32.7533 10.0789 7
      vertex 33.3738 10.1771 0
      vertex 32.7533 10.0789 0
    endloop
  endfacet
  facet normal -0.338739 0.94088 0
    outer loop
      vertex 35.1812 10.7022 0
      vertex 34.5902 10.4894 7
      vertex 35.1812 10.7022 7
    endloop
  endfacet
  facet normal -0.338739 0.94088 0
    outer loop
      vertex 34.5902 10.4894 7
      vertex 35.1812 10.7022 0
      vertex 34.5902 10.4894 0
    endloop
  endfacet
  facet normal -0.612911 0.790152 0
    outer loop
      vertex 37.8742 12.2949 0
      vertex 37.3779 11.9098 7
      vertex 37.8742 12.2949 7
    endloop
  endfacet
  facet normal -0.612911 0.790152 0
    outer loop
      vertex 37.3779 11.9098 7
      vertex 37.8742 12.2949 0
      vertex 37.3779 11.9098 0
    endloop
  endfacet
  facet normal -0.50904 0.860743 0
    outer loop
      vertex 36.8583 11.5567 0
      vertex 36.3175 11.2369 7
      vertex 36.8583 11.5567 7
    endloop
  endfacet
  facet normal -0.50904 0.860743 0
    outer loop
      vertex 36.3175 11.2369 7
      vertex 36.8583 11.5567 0
      vertex 36.3175 11.2369 0
    endloop
  endfacet
  facet normal -0.0314103 0.999507 0
    outer loop
      vertex 32.1279 10.0197 0
      vertex 31.5 10 7
      vertex 32.1279 10.0197 7
    endloop
  endfacet
  facet normal -0.0314103 0.999507 0
    outer loop
      vertex 31.5 10 7
      vertex 32.1279 10.0197 0
      vertex 31.5 10 0
    endloop
  endfacet
  facet normal 0.278991 0.960294 -0
    outer loop
      vertex 29.0131 10.3142 0
      vertex 28.4098 10.4894 7
      vertex 29.0131 10.3142 7
    endloop
  endfacet
  facet normal 0.278991 0.960294 0
    outer loop
      vertex 28.4098 10.4894 7
      vertex 29.0131 10.3142 0
      vertex 28.4098 10.4894 0
    endloop
  endfacet
  facet normal 0.453991 0.891006 -0
    outer loop
      vertex 27.2422 10.9517 0
      vertex 26.6825 11.2369 7
      vertex 27.2422 10.9517 7
    endloop
  endfacet
  facet normal 0.453991 0.891006 0
    outer loop
      vertex 26.6825 11.2369 7
      vertex 27.2422 10.9517 0
      vertex 26.6825 11.2369 0
    endloop
  endfacet
  facet normal 0.562082 0.827081 -0
    outer loop
      vertex 26.1417 11.5567 0
      vertex 25.6221 11.9098 7
      vertex 26.1417 11.5567 7
    endloop
  endfacet
  facet normal 0.562082 0.827081 0
    outer loop
      vertex 25.6221 11.9098 7
      vertex 26.1417 11.5567 0
      vertex 25.6221 11.9098 0
    endloop
  endfacet
  facet normal 0.661312 0.750111 -0
    outer loop
      vertex 25.1258 12.2949 0
      vertex 24.6545 12.7103 7
      vertex 25.1258 12.2949 7
    endloop
  endfacet
  facet normal 0.661312 0.750111 0
    outer loop
      vertex 24.6545 12.7103 7
      vertex 25.1258 12.2949 0
      vertex 24.6545 12.7103 0
    endloop
  endfacet
  facet normal 0.975917 0.21814 0
    outer loop
      vertex 21.8142 17.5131 7
      vertex 21.6771 18.1262 0
      vertex 21.6771 18.1262 7
    endloop
  endfacet
  facet normal 0.975917 0.21814 0
    outer loop
      vertex 21.6771 18.1262 0
      vertex 21.8142 17.5131 7
      vertex 21.8142 17.5131 0
    endloop
  endfacet
  facet normal 0.995562 0.0941082 0
    outer loop
      vertex 21.5789 18.7467 7
      vertex 21.5197 19.3721 0
      vertex 21.5197 19.3721 7
    endloop
  endfacet
  facet normal 0.995562 0.0941082 0
    outer loop
      vertex 21.5197 19.3721 0
      vertex 21.5789 18.7467 7
      vertex 21.5789 18.7467 0
    endloop
  endfacet
  facet normal 0.94088 0.33874 0
    outer loop
      vertex 22.2022 16.3188 7
      vertex 21.9894 16.9098 0
      vertex 21.9894 16.9098 7
    endloop
  endfacet
  facet normal 0.94088 0.33874 0
    outer loop
      vertex 21.9894 16.9098 0
      vertex 22.2022 16.3188 7
      vertex 22.2022 16.3188 0
    endloop
  endfacet
  facet normal 0.917755 0.397148 0
    outer loop
      vertex 22.4517 15.7422 7
      vertex 22.2022 16.3188 0
      vertex 22.2022 16.3188 7
    endloop
  endfacet
  facet normal 0.917755 0.397148 0
    outer loop
      vertex 22.2022 16.3188 0
      vertex 22.4517 15.7422 7
      vertex 22.4517 15.7422 0
    endloop
  endfacet
  facet normal 0.860742 0.509042 0
    outer loop
      vertex 23.0567 14.6417 7
      vertex 22.7369 15.1825 0
      vertex 22.7369 15.1825 7
    endloop
  endfacet
  facet normal 0.860742 0.509042 0
    outer loop
      vertex 22.7369 15.1825 0
      vertex 23.0567 14.6417 7
      vertex 23.0567 14.6417 0
    endloop
  endfacet
  facet normal 0.790152 0.61291 0
    outer loop
      vertex 23.7949 13.6258 7
      vertex 23.4098 14.1221 0
      vertex 23.4098 14.1221 7
    endloop
  endfacet
  facet normal 0.790152 0.61291 0
    outer loop
      vertex 23.4098 14.1221 0
      vertex 23.7949 13.6258 7
      vertex 23.7949 13.6258 0
    endloop
  endfacet
  facet normal 0.707105 0.707108 -0
    outer loop
      vertex 24.6545 12.7103 0
      vertex 24.2103 13.1545 7
      vertex 24.6545 12.7103 7
    endloop
  endfacet
  facet normal 0.707105 0.707108 0
    outer loop
      vertex 24.2103 13.1545 7
      vertex 24.6545 12.7103 0
      vertex 24.2103 13.1545 0
    endloop
  endfacet
  facet normal -0.995562 -0.0941082 0
    outer loop
      vertex 41.4803 20.6279 0
      vertex 41.4211 21.2533 7
      vertex 41.4211 21.2533 0
    endloop
  endfacet
  facet normal -0.995562 -0.0941082 0
    outer loop
      vertex 41.4211 21.2533 7
      vertex 41.4803 20.6279 0
      vertex 41.4803 20.6279 7
    endloop
  endfacet
  facet normal 0.999507 -0.0314119 0
    outer loop
      vertex 21.5 20 7
      vertex 21.5197 20.6279 0
      vertex 21.5197 20.6279 7
    endloop
  endfacet
  facet normal 0.999507 -0.0314119 0
    outer loop
      vertex 21.5197 20.6279 0
      vertex 21.5 20 7
      vertex 21.5 20 0
    endloop
  endfacet
  facet normal -0.891005 0.453993 0
    outer loop
      vertex 40.2631 15.1825 0
      vertex 40.5483 15.7422 7
      vertex 40.5483 15.7422 0
    endloop
  endfacet
  facet normal -0.891005 0.453993 0
    outer loop
      vertex 40.5483 15.7422 7
      vertex 40.2631 15.1825 0
      vertex 40.2631 15.1825 7
    endloop
  endfacet
  facet normal -0.397147 0.917755 0
    outer loop
      vertex 35.7578 10.9517 0
      vertex 35.1812 10.7022 7
      vertex 35.7578 10.9517 7
    endloop
  endfacet
  facet normal -0.397147 0.917755 0
    outer loop
      vertex 35.1812 10.7022 7
      vertex 35.7578 10.9517 0
      vertex 35.1812 10.7022 0
    endloop
  endfacet
  facet normal -0.661309 0.750113 0
    outer loop
      vertex 38.3455 12.7103 0
      vertex 37.8742 12.2949 7
      vertex 38.3455 12.7103 7
    endloop
  endfacet
  facet normal -0.661309 0.750113 0
    outer loop
      vertex 37.8742 12.2949 7
      vertex 38.3455 12.7103 0
      vertex 37.8742 12.2949 0
    endloop
  endfacet
  facet normal -0.562082 0.827081 0
    outer loop
      vertex 37.3779 11.9098 0
      vertex 36.8583 11.5567 7
      vertex 37.3779 11.9098 7
    endloop
  endfacet
  facet normal -0.562082 0.827081 0
    outer loop
      vertex 36.8583 11.5567 7
      vertex 37.3779 11.9098 0
      vertex 36.8583 11.5567 0
    endloop
  endfacet
  facet normal 0.218143 0.975917 -0
    outer loop
      vertex 29.6262 10.1771 0
      vertex 29.0131 10.3142 7
      vertex 29.6262 10.1771 7
    endloop
  endfacet
  facet normal 0.218143 0.975917 0
    outer loop
      vertex 29.0131 10.3142 7
      vertex 29.6262 10.1771 0
      vertex 29.0131 10.3142 0
    endloop
  endfacet
  facet normal 0.397148 0.917755 -0
    outer loop
      vertex 27.8188 10.7022 0
      vertex 27.2422 10.9517 7
      vertex 27.8188 10.7022 7
    endloop
  endfacet
  facet normal 0.397148 0.917755 0
    outer loop
      vertex 27.2422 10.9517 7
      vertex 27.8188 10.7022 0
      vertex 27.2422 10.9517 0
    endloop
  endfacet
  facet normal 0.612908 0.790154 -0
    outer loop
      vertex 25.6221 11.9098 0
      vertex 25.1258 12.2949 7
      vertex 25.6221 11.9098 7
    endloop
  endfacet
  facet normal 0.612908 0.790154 0
    outer loop
      vertex 25.1258 12.2949 7
      vertex 25.6221 11.9098 0
      vertex 25.1258 12.2949 0
    endloop
  endfacet
  facet normal 0.987688 0.156434 0
    outer loop
      vertex 21.6771 18.1262 7
      vertex 21.5789 18.7467 0
      vertex 21.5789 18.7467 7
    endloop
  endfacet
  facet normal 0.987688 0.156434 0
    outer loop
      vertex 21.5789 18.7467 0
      vertex 21.6771 18.1262 7
      vertex 21.6771 18.1262 0
    endloop
  endfacet
  facet normal 0.827082 0.562081 0
    outer loop
      vertex 23.4098 14.1221 7
      vertex 23.0567 14.6417 0
      vertex 23.0567 14.6417 7
    endloop
  endfacet
  facet normal 0.827082 0.562081 0
    outer loop
      vertex 23.0567 14.6417 0
      vertex 23.4098 14.1221 7
      vertex 23.4098 14.1221 0
    endloop
  endfacet
  facet normal 0.750113 0.661309 0
    outer loop
      vertex 24.2103 13.1545 7
      vertex 23.7949 13.6258 0
      vertex 23.7949 13.6258 7
    endloop
  endfacet
  facet normal 0.750113 0.661309 0
    outer loop
      vertex 23.7949 13.6258 0
      vertex 24.2103 13.1545 7
      vertex 24.2103 13.1545 0
    endloop
  endfacet
  facet normal -0.975916 0.218146 0
    outer loop
      vertex 41.1858 17.5131 0
      vertex 41.3229 18.1262 7
      vertex 41.3229 18.1262 0
    endloop
  endfacet
  facet normal -0.975916 0.218146 0
    outer loop
      vertex 41.3229 18.1262 7
      vertex 41.1858 17.5131 0
      vertex 41.1858 17.5131 7
    endloop
  endfacet
  facet normal -0.917756 0.397145 0
    outer loop
      vertex 40.5483 15.7422 0
      vertex 40.7978 16.3188 7
      vertex 40.7978 16.3188 0
    endloop
  endfacet
  facet normal -0.917756 0.397145 0
    outer loop
      vertex 40.7978 16.3188 7
      vertex 40.5483 15.7422 0
      vertex 40.5483 15.7422 7
    endloop
  endfacet
  facet normal -0.790152 0.61291 0
    outer loop
      vertex 39.2051 13.6258 0
      vertex 39.5902 14.1221 7
      vertex 39.5902 14.1221 0
    endloop
  endfacet
  facet normal -0.790152 0.61291 0
    outer loop
      vertex 39.5902 14.1221 7
      vertex 39.2051 13.6258 0
      vertex 39.2051 13.6258 7
    endloop
  endfacet
  facet normal -0.860743 0.50904 0
    outer loop
      vertex 39.9433 14.6417 0
      vertex 40.2631 15.1825 7
      vertex 40.2631 15.1825 0
    endloop
  endfacet
  facet normal -0.860743 0.50904 0
    outer loop
      vertex 40.2631 15.1825 7
      vertex 39.9433 14.6417 0
      vertex 39.9433 14.6417 7
    endloop
  endfacet
endsolid OpenSCAD_Model
